<svg width="12" height="16" viewBox="0 0 12 16" fill="none" xmlns="http://www.w3.org/2000/svg">
<path d="M11.9772 9.17139L11.9658 9.02064C11.7825 6.72317 10.6715 5.28292 9.69141 4.01256C8.78384 2.83623 8 1.8204 8 0.321535C8 0.201176 7.93 0.0911677 7.819 0.035983C7.70766 -0.0195025 7.57387 -0.0104154 7.47266 0.060446C6.00066 1.07471 4.77247 2.7842 4.34344 4.41531C4.04559 5.5509 4.00619 6.82752 4.00066 7.67067C2.64128 7.39107 2.33334 5.43304 2.33009 5.41173C2.31478 5.31018 2.25034 5.22178 2.15659 5.17351C2.06187 5.12588 1.95053 5.12242 1.8545 5.16819C1.78322 5.20141 0.104812 6.02262 0.00715613 9.30177C0.000312384 9.41085 0 9.51992 0 9.6293C0 12.8148 2.69172 15.4065 6 15.4065C9.30828 15.4065 12 12.8148 12 9.6293C12 9.46946 11.9886 9.32028 11.9772 9.17139ZM6.44991 8.51422C6.44928 8.52407 6.45053 8.50437 6.44991 8.51422C6.43938 8.48372 6.45053 8.50437 6.44991 8.51422ZM6.44991 8.51422C6.44928 8.52407 6.45053 8.50437 6.44991 8.51422V8.51422Z" fill="#FFDA57"/>
<path d="M9.66608 10.6178L9.65986 10.5419C9.55988 9.38509 8.95386 8.65993 8.41923 8.02031C7.92418 7.42803 7.49661 6.91656 7.49661 6.16189C7.49661 6.10129 7.45843 6.0459 7.39788 6.01812C7.33714 5.99018 7.26417 5.99476 7.20896 6.03043C6.40602 6.54111 5.73607 7.40183 5.50205 8.22309C5.33958 8.79485 5.31809 9.43763 5.31507 9.86215C4.57356 9.72137 4.40559 8.73551 4.40382 8.72478C4.39547 8.67365 4.36032 8.62914 4.30918 8.60484C4.25751 8.58086 4.19678 8.57912 4.1444 8.60216C4.10551 8.61889 3.18998 9.03236 3.13672 10.6834C3.13298 10.7383 3.13281 10.7932 3.13281 10.8483C3.13281 12.4522 4.60108 13.7571 6.40566 13.7571C8.21024 13.7571 9.67851 12.4522 9.67851 10.8483C9.67851 10.7678 9.6723 10.6927 9.66608 10.6178ZM6.65107 10.2869C6.65073 10.2918 6.65142 10.2819 6.65107 10.2869C6.64533 10.2715 6.65142 10.2819 6.65107 10.2869ZM6.65107 10.2869C6.65073 10.2918 6.65142 10.2819 6.65107 10.2869V10.2869Z" fill="#EF7E2D"/>
</svg>